# xmcd
#
# Track frame offsets: 
#        150
#        18032
#        38970
#        60926
#        79715
#        102594
#        119809
#        140759
#        161884
#        179457
#        186800
#
# Disc length: 2817 seconds
#
# Revision: 1
# Processed by: cddbd v1.5.2PL0 Copyright (c) Steve Scherf et al.
# Submitted via: ExactAudioCopy v0.99pb5
#
DISCID=970aff0b
DTITLE=Andy Snitzer - Some Quiet Place
DYEAR=2006
DGENRE=Jazz
TTITLE0=As I Was Before
TTITLE1=Only With You
TTITLE2=A Few Wild Nights
TTITLE3=Passion Play
TTITLE4=Loving You
TTITLE5=Boundless
TTITLE6=Some Quiet Place
TTITLE7=On Extended Wing
TTITLE8=Losing Summer
TTITLE9=For Joel
TTITLE10=Testimony
EXTD=YEAR: 2006
EXTT0=
EXTT1=
EXTT2=
EXTT3=
EXTT4=
EXTT5=
EXTT6=
EXTT7=
EXTT8=
EXTT9=
EXTT10=
PLAYORDER=
